<svg id="Layer_1" data-name="Layer 1" xmlns="http://www.w3.org/2000/svg" xmlns:xlink="http://www.w3.org/1999/xlink" viewBox="0 0 2434.21 1504.75"><defs><style>.cls-1,.cls-10,.cls-4,.cls-8{fill:none;}.cls-2{fill:#262626;}.cls-3{clip-path:url(#clip-path);}.cls-4{stroke:#000;}.cls-18,.cls-19,.cls-20,.cls-21,.cls-22,.cls-23,.cls-24,.cls-25,.cls-27,.cls-5{fill:#e59138;}.cls-12,.cls-14,.cls-6{fill:#3d78d9;}.cls-7,.cls-9{fill:#664fa6;}.cls-8{stroke:#664fa6;stroke-miterlimit:10;stroke-width:9px;}.cls-16,.cls-24,.cls-9{font-size:200px;}.cls-11,.cls-12,.cls-13,.cls-14,.cls-15,.cls-16,.cls-17,.cls-18,.cls-19,.cls-20,.cls-21,.cls-22,.cls-23,.cls-24,.cls-25,.cls-26,.cls-27,.cls-9{font-family:MinionPro-Regular, Minion Pro;}.cls-10{stroke:#3b3b92;stroke-width:4px;}.cls-11,.cls-12,.cls-13{font-size:150px;}.cls-11,.cls-28{fill:#fff;}.cls-14,.cls-15{font-size:150px;}.cls-17,.cls-22{font-size:200px;}.cls-18{font-size:200px;}.cls-19{font-size:200px;}.cls-20,.cls-26{font-size:200px;}.cls-21{font-size:200px;}.cls-23{font-size:200px;}.cls-25{font-size:200px;}.cls-27{font-size:200px;}.cls-28{font-size:53px;font-family:Corbel-Bold, Corbel;font-weight:700;}.cls-29{letter-spacing:-0.03em;}</style><clipPath id="clip-path" transform="translate(207 137.39)"><rect class="cls-1" width="1920" height="1080"/></clipPath></defs><rect class="cls-2" x="207" y="137.39" width="1920" height="1080"/><g class="cls-3"><rect class="cls-4" x="0.5" y="71.89" width="2231" height="1196"/><path class="cls-5" d="M1208.14,433.08q.46-147.12-136.81-147.57l-20.9-.07a164.8,164.8,0,0,1,45.81,40.76q28,5.7,44.47,24.94,23.25,27.18,23.08,81.8-.16,50.38-23.59,75.5-17.82,19.11-48.85,23.58a164.56,164.56,0,0,1-49.71,39.59h0l28.72.09q137.28.45,137.74-138.62" transform="translate(207 137.39)"/><path class="cls-6" d="M837.52,522.1q-20.92,11.22-52.16,11.13l-29-.09L757,323.53l29,.09q29,.11,49.07,10.63a164.75,164.75,0,0,1,28.61-32q-30.91-16.75-77.55-16.92l-29-.09-44.37-.15-.93,286.19,41.38.14h0l32,.1q50,.16,82.08-17.85a164.88,164.88,0,0,1-29.8-31.57" transform="translate(207 137.39)"/><path class="cls-5" d="M1000.46,515.3a93.5,93.5,0,0,0,44-35.44l.33-102.36A93.41,93.41,0,0,0,1001,341.77Z" transform="translate(207 137.39)"/><path class="cls-6" d="M876.62,405.32a206.13,206.13,0,0,1,1.65,27.74,183.9,183.9,0,0,1-1.15,20.34,93.23,93.23,0,0,0,33.51,49.26q11.85-28.76,12-69.46.15-46.24-13.32-78a93.13,93.13,0,0,0-32.69,50.11" transform="translate(207 137.39)"/><path class="cls-7" d="M1047.26,501.24a106,106,0,0,1-80.91,37.48c-59.25-.1-107.19-49.27-107.09-109.83s48.22-109.56,107.47-109.46c34.63.06,65.38,16.9,85,43l44.28.08c-23.33-48.48-72.09-81.88-128.53-82-79.23-.14-143.57,65.4-143.71,146.38s64,146.74,143.2,146.88c52.83.09,99-29,124-72.45Z" transform="translate(207 137.39)"/><path class="cls-8" d="M1047.26,501.24a106,106,0,0,1-80.91,37.48c-59.25-.1-107.19-49.27-107.09-109.83s48.22-109.56,107.47-109.46c34.63.06,65.38,16.9,85,43l44.28.08c-23.33-48.48-72.09-81.88-128.53-82-79.23-.14-143.57,65.4-143.71,146.38s64,146.74,143.2,146.88c52.83.09,99-29,124-72.45Z" transform="translate(207 137.39)"/><text class="cls-9" transform="matrix(0.8, -0.99, 0.78, 0.63, 365.65, 834.47)">.............</text><line class="cls-10" x1="1618.27" y1="390.49" x2="2215.92" y2="331.8"/><line class="cls-10" x1="1661.58" y1="477.48" x2="2273.8" y2="417.38"/><line class="cls-10" x1="1670.61" y1="571.27" x2="2199.03" y2="519.25"/><line class="cls-10" x1="1644.69" y1="664.92" x2="2207.73" y2="609.57"/></g><line class="cls-10" x1="1766.57" y1="849.98" x2="1713.88" y2="314.66"/><line class="cls-10" x1="1854.81" y1="799.53" x2="1801.29" y2="255.55"/><line class="cls-10" x1="1953.89" y1="861.66" x2="1898.36" y2="296.9"/><line class="cls-10" x1="2039.29" y1="781.76" x2="1982.1" y2="199.68"/><g class="cls-3"><line class="cls-10" x1="2131.53" y1="772.88" x2="2078.01" y2="228.9"/><line class="cls-10" x1="1627.88" y1="757.7" x2="2251.04" y2="696.55"/><line class="cls-10" x1="569.38" y1="1353.63" x2="532.83" y2="889.29"/><line class="cls-10" x1="637.45" y1="1321.21" x2="600.01" y2="845.54"/><line class="cls-10" x1="710.33" y1="1315.47" x2="678.02" y2="904.93"/><line class="cls-10" x1="782.63" y1="1336.85" x2="748.21" y2="899.4"/><line class="cls-10" x1="890.3" y1="1176.16" x2="467.67" y2="1209.43"/></g><line class="cls-10" x1="939.84" y1="1100.14" x2="501.06" y2="1134.67"/><line class="cls-10" x1="879.02" y1="1032.81" x2="426.77" y2="1068.4"/><line class="cls-10" x1="873.38" y1="961.13" x2="450.74" y2="994.39"/><g class="cls-3"><line class="cls-10" x1="854.38" y1="1351.14" x2="816.27" y2="866.98"/></g><text class="cls-11" transform="translate(1510.39 994.44) scale(1.27 1)">..............</text><g class="cls-3"><text class="cls-12" transform="translate(1561.05 413.39) rotate(-90) scale(1.27 1)">.......</text><text class="cls-13" transform="translate(1561.05 109.35) rotate(-90) scale(1.27 1)">.</text><text class="cls-11" transform="translate(391.05 1220.92) rotate(-90) scale(1.27 1)">......</text><line class="cls-10" x1="109.66" y1="359.86" x2="330.08" y2="1.05"/><line class="cls-10" x1="164.69" y1="393.58" x2="354.98" y2="83.93"/><line class="cls-10" x1="205.23" y1="446.36" x2="407.97" y2="116.41"/><line class="cls-10" x1="356.74" y1="456.87" x2="43.05" y2="264.09"/><line class="cls-10" x1="365.52" y1="387.8" x2="46.74" y2="191.92"/><line class="cls-10" x1="440.34" y1="359.22" x2="109.37" y2="155.86"/><line class="cls-10" x1="431.84" y1="279.57" x2="90.71" y2="69.98"/><line class="cls-10" x1="465.01" y1="225.45" x2="146.23" y2="29.56"/><line class="cls-10" x1="249.05" y1="493.8" x2="473.41" y2="128.57"/><text class="cls-14" transform="matrix(-1.14, -0.56, 0.44, -0.9, 1539.09, 382.56)">..............</text><text class="cls-15" transform="matrix(-1.14, -0.56, 0.44, -0.9, 992.56, 116)">...</text><text class="cls-16" transform="translate(1244.25 1283.68) rotate(-42.38)">.</text><text class="cls-17" transform="matrix(0.8, -0.6, 0.6, 0.8, 1277.95, 1252.9)">.</text><text class="cls-18" transform="matrix(0.85, -0.53, 0.53, 0.85, 1314.62, 1225.75)">.</text><text class="cls-19" transform="matrix(0.89, -0.46, 0.46, 0.89, 1353.4, 1201.73)">.</text><text class="cls-20" transform="matrix(0.92, -0.4, 0.4, 0.92, 1393.83, 1180.6)">.</text><text class="cls-21" transform="translate(1435.61 1162.31) rotate(-20.37)">.</text></g><text class="cls-22" transform="matrix(0.96, -0.29, 0.29, 0.96, 1478.38, 1146.45)">.</text><text class="cls-23" transform="translate(1521.98 1133.07) rotate(-13.95)">.</text><text class="cls-21" transform="translate(1566.24 1122.06) rotate(-11.18)">.</text><text class="cls-22" transform="translate(1610.99 1113.26) rotate(-8.45)">.</text><text class="cls-19" transform="translate(1656.11 1106.62) rotate(-5.73)">.</text><text class="cls-24" transform="matrix(1, -0.05, 0.05, 1, 1701.49, 1102.09)">.</text><text class="cls-19" transform="matrix(1, -0.01, 0.01, 1, 1747.04, 1099.72)">.</text><text class="cls-20" transform="matrix(1, 0.05, -0.05, 1, 1792.65, 1099.45)">.</text><text class="cls-23" transform="translate(1838.21 1101.56) rotate(5.46)">.</text><text class="cls-21" transform="translate(1883.61 1105.95) rotate(8.55)">.</text><text class="cls-20" transform="translate(1928.71 1112.74) rotate(11.99)">.</text><text class="cls-20" transform="translate(1973.34 1122.19) rotate(15.6)">.</text><g class="cls-3"><text class="cls-20" transform="matrix(0.94, 0.34, -0.34, 0.94, 2017.3, 1134.39)">.</text><text class="cls-24" transform="translate(2060.28 1149.7) rotate(24.16)">.</text><text class="cls-20" transform="translate(2101.93 1168.34) rotate(29.37)">.</text><text class="cls-20" transform="matrix(0.81, 0.58, -0.58, 0.81, 2141.71, 1190.72)">.</text><text class="cls-25" transform="translate(2178.93 1217.21) rotate(43.51)">.</text><text class="cls-22" transform="matrix(0.61, 0.8, -0.8, 0.61, 2212.18, 1248.57)">.</text><text class="cls-21" transform="matrix(0.43, 0.9, -0.9, 0.43, 2240, 1284.92)">.</text><text class="cls-22" transform="translate(2259.76 1326.25) rotate(77.77)">.</text><text class="cls-23" transform="translate(2269.28 1371.05) rotate(91.6)">.</text><text class="cls-26" transform="matrix(-0.27, 0.96, -0.96, -0.27, 2267.8, 1416.83)">.</text><text class="cls-22" transform="translate(628.31 128.4) rotate(112.32)">.</text></g><text class="cls-22" transform="translate(610.97 170.58) rotate(114.15)">.</text><text class="cls-21" transform="matrix(-0.43, 0.9, -0.9, -0.43, 592.29, 212.18)">.</text><text class="cls-21" transform="translate(572.5 253.26) rotate(117.15)">.</text><text class="cls-22" transform="translate(551.69 293.84) rotate(118.42)">.</text><text class="cls-23" transform="translate(530 333.95) rotate(119.63)">.</text><text class="cls-18" transform="matrix(-0.51, 0.86, -0.86, -0.51, 507.46, 373.59)">.</text><text class="cls-20" transform="translate(484.16 412.79) rotate(121.8)">.</text><text class="cls-23" transform="matrix(-0.54, 0.84, -0.84, -0.54, 460.14, 451.55)">.</text><text class="cls-22" transform="matrix(-0.56, 0.83, -0.83, -0.56, 435.38, 489.84)">.</text><text class="cls-19" transform="translate(409.96 527.7) rotate(124.91)">.</text><text class="cls-24" transform="matrix(-0.59, 0.81, -0.81, -0.59, 383.86, 565.09)">.</text><text class="cls-27" transform="translate(357.01 601.95) rotate(127.21)">.</text><text class="cls-23" transform="translate(329.42 638.26) rotate(128.46)">.</text><text class="cls-24" transform="translate(301.08 673.98) rotate(129.87)">.</text><g class="cls-3"><text class="cls-18" transform="matrix(-0.66, 0.75, -0.75, -0.66, 271.87, 709.01)">.</text><text class="cls-20" transform="translate(241.76 743.26) rotate(133.17)">.</text><text class="cls-20" transform="matrix(-0.71, 0.71, -0.71, -0.71, 210.59, 776.54)">.</text></g><text class="cls-28" transform="translate(750.11 804.8)">Connect the Dots and March in<tspan class="cls-29" x="701.16" y="0"> </tspan><tspan x="710.65" y="0">Sync</tspan></text></svg>